<svg width="400" height="120" viewBox="0 0 400 120" fill="none" xmlns="http://www.w3.org/2000/svg">
  <!-- Car silhouette 1 -->
  <path d="M45 35C50 30 60 28 75 30C85 25 95 25 105 30C115 32 120 35 125 40L130 45C132 48 135 50 140 50L160 52C165 53 168 55 170 58L175 65C177 68 180 70 185 70L200 72C205 73 208 75 210 78C210 82 208 85 205 87C200 89 195 90 190 90L50 90C45 90 40 89 35 87C32 85 30 82 30 78C30 75 32 73 35 72L40 70C42 68 45 65 47 62L50 58C52 55 55 53 60 52L80 50C85 50 88 48 90 45L95 40C97 38 100 36 105 35C110 32 120 30 130 32C135 28 140 28 145 30C150 32 152 35 150 38C148 40 145 42 142 43C140 45 138 47 135 48L130 50C125 52 120 55 115 58L110 62C108 65 105 68 100 70L95 72C92 75 88 78 85 82C82 85 80 88 78 92L75 95C72 98 68 100 65 100L60 102C55 103 50 102 45 100C40 98 35 95 32 92C30 88 30 85 32 82C35 78 38 75 42 72L47 70C50 68 52 65 55 62L60 58C65 55 70 52 75 50L80 48C82 47 85 45 87 43C90 42 92 40 95 38C97 35 100 32 105 30C110 28 115 28 120 30C125 32 128 35 130 38C132 40 135 42 138 43C140 45 142 47 145 48L150 50C155 52 160 55 165 58L170 62C172 65 175 68 180 70L185 72C188 75 192 78 195 82C198 85 200 88 202 92L205 95C208 98 212 100 215 100L220 102C225 103 230 102 235 100C240 98 245 95 248 92C250 88 250 85 248 82C245 78 242 75 238 72L233 70C230 68 228 65 225 62L220 58C215 55 210 52 205 50L200 48C198 47 195 45 193 43C190 42 188 40 185 38C183 35 180 32 175 30C170 28 165 28 160 30C155 32 152 35 150 38" fill="url(#goldGradient)" opacity="0.9"/>
  
  <!-- Car silhouette 2 -->
  <path d="M220 45C225 40 235 38 250 40C260 35 270 35 280 40C290 42 295 45 300 50L305 55C307 58 310 60 315 60L335 62C340 63 343 65 345 68L350 75C352 78 355 80 360 80L375 82C380 83 383 85 385 88C385 92 383 95 380 97C375 99 370 100 365 100L225 100C220 100 215 99 210 97C207 95 205 92 205 88C205 85 207 83 210 82L215 80C217 78 220 75 222 72L225 68C227 65 230 63 235 62L255 60C260 60 263 58 265 55L270 50C272 48 275 46 280 45C285 42 295 40 305 42C310 38 315 38 320 40C325 42 327 45 325 48C323 50 320 52 317 53C315 55 313 57 310 58L305 60C300 62 295 65 290 68L285 72C283 75 280 78 275 80L270 82C267 85 263 88 260 92C257 95 255 98 253 102L250 105C247 108 243 110 240 110L235 112C230 113 225 112 220 110C215 108 210 105 207 102C205 98 205 95 207 92C210 88 213 85 217 82L222 80C225 78 227 75 230 72L235 68C240 65 245 62 250 60L255 58C257 57 260 55 262 53C265 52 267 50 270 48C272 45 275 42 280 40C285 38 290 38 295 40C300 42 303 45 305 48C307 50 310 52 313 53C315 55 317 57 320 58L325 60C330 62 335 65 340 68L345 72C347 75 350 78 355 80L360 82C363 85 367 88 370 92C373 95 375 98 377 102L380 105C383 108 387 110 390 110L395 112C400 113 405 112 410 110C415 108 420 105 423 102C425 98 425 95 423 92C420 88 417 85 413 82L408 80C405 78 403 75 400 72L395 68C390 65 385 62 380 60L375 58C373 57 370 55 368 53C365 52 363 50 360 48C358 45 355 42 350 40C345 38 340 38 335 40C330 42 327 45 325 48" fill="url(#silverGradient)" opacity="0.8"/>
  
  <!-- ECOMAUTOS Text -->
  <text x="60" y="45" font-family="Arial, sans-serif" font-size="32" font-weight="bold" fill="url(#goldGradient)">ECOMAUTOS</text>
  
  <!-- Tagline -->
  <text x="60" y="75" font-family="Arial, sans-serif" font-size="14" font-weight="normal" fill="#F8FAFC" letter-spacing="2px">CLIC . GANA . EXPORTA .</text>
  
  <!-- Gradients -->
  <defs>
    <linearGradient id="goldGradient" x1="0%" y1="0%" x2="100%" y2="0%">
      <stop offset="0%" style="stop-color:#FACC15;stop-opacity:1" />
      <stop offset="100%" style="stop-color:#F97316;stop-opacity:1" />
    </linearGradient>
    <linearGradient id="silverGradient" x1="0%" y1="0%" x2="100%" y2="0%">
      <stop offset="0%" style="stop-color:#F8FAFC;stop-opacity:1" />
      <stop offset="100%" style="stop-color:#E2E8F0;stop-opacity:1" />
    </linearGradient>
  </defs>
</svg>